<svg xmlns="http://www.w3.org/2000/svg" width="1200" height="700" viewBox="0 0 1200 700" role="img" aria-labelledby="title desc">
  <title id="title">Mockup Penilaian Asesor</title>
  <desc id="desc">Ilustrasi tabel entry penilaian asesor</desc>
  <rect width="1200" height="700" fill="#f1f5f9"/>
  <rect x="70" y="45" width="1060" height="610" rx="20" fill="#ffffff" stroke="#cbd5e1"/>
  <text x="120" y="105" font-family="Arial, sans-serif" font-size="32" fill="#0f172a" font-weight="700">Entry Penilaian Asesor</text>
  <rect x="110" y="140" width="980" height="470" rx="12" fill="#ffffff" stroke="#e2e8f0"/>
  <rect x="110" y="140" width="980" height="52" rx="12" fill="#f8fafc"/>
  <text x="140" y="173" font-family="Arial, sans-serif" font-size="17" fill="#475569" font-weight="700">Asesi</text>
  <text x="360" y="173" font-family="Arial, sans-serif" font-size="17" fill="#475569" font-weight="700">Unit</text>
  <text x="620" y="173" font-family="Arial, sans-serif" font-size="17" fill="#475569" font-weight="700">Nilai</text>
  <text x="820" y="173" font-family="Arial, sans-serif" font-size="17" fill="#475569" font-weight="700">Rekomendasi</text>
  <rect x="120" y="220" width="960" height="56" rx="8" fill="#f8fafc"/>
  <text x="140" y="255" font-family="Arial, sans-serif" font-size="18" fill="#1f2937">Rani Putri</text>
  <text x="360" y="255" font-family="Arial, sans-serif" font-size="18" fill="#1f2937">Analisis Kebutuhan</text>
  <text x="620" y="255" font-family="Arial, sans-serif" font-size="18" fill="#1f2937">88</text>
  <text x="820" y="255" font-family="Arial, sans-serif" font-size="18" fill="#166534">Kompeten</text>
  <rect x="120" y="292" width="960" height="56" rx="8" fill="#f8fafc"/>
  <text x="140" y="327" font-family="Arial, sans-serif" font-size="18" fill="#1f2937">Budi Saputra</text>
  <text x="360" y="327" font-family="Arial, sans-serif" font-size="18" fill="#1f2937">Implementasi</text>
  <text x="620" y="327" font-family="Arial, sans-serif" font-size="18" fill="#1f2937">82</text>
  <text x="820" y="327" font-family="Arial, sans-serif" font-size="18" fill="#166534">Kompeten</text>
  <rect x="120" y="364" width="960" height="56" rx="8" fill="#f8fafc"/>
  <text x="140" y="399" font-family="Arial, sans-serif" font-size="18" fill="#1f2937">Dita Amalia</text>
  <text x="360" y="399" font-family="Arial, sans-serif" font-size="18" fill="#1f2937">Uji Fungsional</text>
  <text x="620" y="399" font-family="Arial, sans-serif" font-size="18" fill="#1f2937">74</text>
  <text x="820" y="399" font-family="Arial, sans-serif" font-size="18" fill="#b45309">Review Lanjutan</text>
  <rect x="920" y="540" width="160" height="52" rx="10" fill="#0369a1"/>
  <text x="1000" y="573" text-anchor="middle" font-family="Arial, sans-serif" font-size="20" fill="#ffffff" font-weight="700">Simpan</text>
</svg>